<svg width="84" height="19" viewBox="0 0 84 19" fill="none" xmlns="http://www.w3.org/2000/svg">
<path d="M82.864 1.18419L80.5309 0.825592C80.4666 0.825592 80.3941 0.825593 80.3941 0.890793L79.4046 2.18659C79.3469 2.26959 79.3212 2.37099 79.3322 2.47189C79.3322 2.54519 79.2598 2.68379 79.1874 2.61039L78.3829 2.39849C78.2381 2.39849 78.0933 2.39849 78.0289 2.54519L74.8109 6.70169C74.7385 6.76689 74.6661 6.76689 74.5293 6.76689L73.3225 6.19639C73.2704 6.16029 73.2087 6.14099 73.1456 6.14099C73.0824 6.14099 73.0207 6.16029 72.9686 6.19639L72.4054 6.62839C72.3533 6.66449 72.2916 6.68379 72.2284 6.68379C72.1653 6.68379 72.1036 6.66449 72.0514 6.62839L71.7699 6.48169C71.7238 6.45949 71.6736 6.44769 71.6227 6.44699C71.5717 6.44629 71.5212 6.45669 71.4747 6.47759C71.4281 6.49849 71.3865 6.52939 71.3527 6.56799C71.319 6.60669 71.2939 6.65229 71.2791 6.70169L71.0619 7.70419C71.0366 7.81029 71.0439 7.92179 71.0827 8.02369C71.1215 8.12559 71.19 8.21309 71.2791 8.27459L71.8423 8.63319L73.3306 9.56229L74.0144 9.96979C74.1151 10.0299 74.2322 10.0552 74.3483 10.042C74.4644 10.0288 74.5731 9.97769 74.658 9.89649L75.8567 8.82069C75.9647 8.76089 76.0889 8.73799 76.2107 8.75549L76.5647 8.96739C76.7095 9.04069 76.8463 9.04069 76.9187 8.89399L77.5542 8.32349C77.5979 8.27479 77.6557 8.24139 77.7194 8.22819C77.783 8.21499 77.8492 8.22269 77.9082 8.25019L78.8254 8.68209C78.9702 8.75549 79.1069 8.68209 79.2518 8.60879L79.6781 8.03829L82.8962 3.88179C83.041 3.66179 82.9686 3.37649 82.687 3.37649L81.979 3.23799C81.8423 3.23799 81.7699 3.01789 81.8423 2.87939L82.9686 1.51829C83.1053 1.39609 83.0329 1.18419 82.864 1.18419Z" fill="white"/>
<path d="M72.2848 9.56231C72.2124 9.48901 72.14 9.56231 72.14 9.63571L72.494 10.5648V10.7848L72.2124 11.9992C72.2075 12.039 72.2115 12.0794 72.224 12.1175C72.2365 12.1556 72.2573 12.1903 72.2848 12.2192L73.1296 12.8631C73.1701 12.8941 73.2195 12.911 73.2703 12.911C73.3212 12.911 73.3706 12.8941 73.4111 12.8631L74.3363 12.0481C74.3629 12.0198 74.3957 11.9984 74.4321 11.9857C74.4685 11.9729 74.5074 11.9692 74.5455 11.9747L75.535 11.8362C75.6074 11.8362 75.6074 11.7628 75.535 11.6895L72.2848 9.56231Z" fill="white"/>
<path d="M72.0032 12.643C71.9897 12.6274 71.9729 12.6149 71.9542 12.6064C71.9355 12.5978 71.9152 12.5934 71.8946 12.5934C71.8741 12.5934 71.8538 12.5978 71.8351 12.6064C71.8163 12.6149 71.7996 12.6274 71.786 12.643L71.0781 13.0016C71.0589 13.0016 71.0404 13.0094 71.0269 13.0231C71.0133 13.0369 71.0057 13.0555 71.0057 13.075L69.453 16.9462H69.5254L69.8794 16.7995V16.8729L68.745 18.7392C68.745 18.8044 68.745 18.8044 68.8174 18.8044L72.7756 14.7294C72.848 14.7294 72.848 14.6561 72.848 14.5909L72.9204 13.5151C72.9204 13.4417 72.9204 13.3684 72.848 13.3684L72.0032 12.643Z" fill="white"/>
<path d="M15.9614 13.5721V18.5762H0C0 18.5762 7.59453 10.1247 8.59212 8.14421C9.39662 6.57951 8.54385 5.64221 7.78761 5.64221C7.03138 5.64221 6.1786 6.08231 6.1786 8.14421L0.0482703 7.72861C0.0482703 3.81661 2.75945 0.630005 7.77152 0.630005C12.5986 0.630005 15.5511 3.21351 15.5511 6.89731C15.5511 9.18741 13.6042 11.7873 11.4562 13.5721H15.9614Z" fill="white"/>
<path d="M33.9662 9.81499C33.9662 14.8598 30.6596 19 25.7441 19C20.8286 19 17.5945 14.8598 17.5945 9.81499C17.5945 4.77019 20.9171 0.638092 25.7441 0.638092C30.5711 0.638092 33.9662 4.75389 33.9662 9.81499Z" fill="white"/>
<path d="M51.5608 13.5721V18.5762H35.5994C35.5994 18.5762 43.1939 10.1247 44.1915 8.14421C44.996 6.57951 44.1432 5.64221 43.387 5.64221C42.6307 5.64221 41.778 6.08231 41.778 8.14421L35.6879 7.72861C35.6879 3.81661 38.399 0.630005 43.4111 0.630005C48.2381 0.630005 51.1907 3.21351 51.1907 6.89731C51.1907 9.18741 49.2438 11.7873 47.0957 13.5721H51.5608Z" fill="white"/>
<path d="M63.0168 0.630005V18.5599H56.4682V6.89731L53.6041 7.25591V2.22741L63.0168 0.630005Z" fill="white"/>
</svg>
